<?xml version="1.0" encoding="utf-8"?>
<!-- Generator: Adobe Illustrator 16.0.0, SVG Export Plug-In . SVG Version: 6.00 Build 0)  -->
<svg version="1.2" baseProfile="tiny" id="Layer_1" xmlns="http://www.w3.org/2000/svg" xmlns:xlink="http://www.w3.org/1999/xlink"
	 x="0px" y="0px" width="200px" height="200px" viewBox="0 0 200 200" xml:space="preserve">
<g>
	<path fill="#FFFFFF" d="M99.999,95.997c-10.779,0-19.549,8.771-19.549,19.549c0,10.78,8.77,19.549,19.549,19.549
		s19.55-8.769,19.55-19.549C119.549,104.768,110.778,95.997,99.999,95.997z"/>
	<path fill="#FFFFFF" d="M134.033,66.434V46.716H65.965v19.717H49.8v-5.505H33.441v5.505H17.277v93.595h165.444V66.434H134.033z
		 M99.999,147.146c-17.424,0-31.6-14.176-31.6-31.6c0-11.518,6.199-21.613,15.432-27.135c4.733-2.831,10.264-4.463,16.168-4.463
		c5.905,0,11.435,1.632,16.168,4.463c9.233,5.522,15.431,15.618,15.431,27.135C131.598,132.97,117.424,147.146,99.999,147.146z
		 M174.014,86.773h-35.905V75.512h35.905V86.773z"/>
</g>
</svg>
